<svg width="153" height="28" viewBox="0 0 153 28" fill="none" xmlns="http://www.w3.org/2000/svg">
<path d="M12.5 5V14M12.5 23V14M12.5 14H21.5M12.5 14H3.5" stroke="white" stroke-width="1.8" stroke-linecap="round" stroke-linejoin="round"/>
<path d="M42.966 19.644C42.246 19.644 41.886 19.272 41.886 18.528V7.818C41.886 7.446 41.976 7.164 42.156 6.972C42.348 6.768 42.594 6.666 42.894 6.666C43.17 6.666 43.374 6.72 43.506 6.828C43.65 6.924 43.818 7.092 44.01 7.332L50.436 15.666V7.764C50.436 7.032 50.796 6.666 51.516 6.666C52.224 6.666 52.578 7.032 52.578 7.764V18.564C52.578 18.9 52.494 19.164 52.326 19.356C52.158 19.548 51.93 19.644 51.642 19.644C51.366 19.644 51.144 19.59 50.976 19.482C50.82 19.374 50.646 19.2 50.454 18.96L44.028 10.608V18.528C44.028 19.272 43.674 19.644 42.966 19.644ZM59.3488 19.68C58.4368 19.68 57.6448 19.494 56.9728 19.122C56.3008 18.75 55.7788 18.222 55.4068 17.538C55.0348 16.842 54.8488 16.026 54.8488 15.09C54.8488 14.154 55.0348 13.344 55.4068 12.66C55.7788 11.976 56.3008 11.448 56.9728 11.076C57.6448 10.704 58.4368 10.518 59.3488 10.518C60.2608 10.518 61.0528 10.704 61.7248 11.076C62.3968 11.448 62.9188 11.976 63.2908 12.66C63.6628 13.344 63.8488 14.154 63.8488 15.09C63.8488 16.026 63.6628 16.842 63.2908 17.538C62.9188 18.222 62.3968 18.75 61.7248 19.122C61.0528 19.494 60.2608 19.68 59.3488 19.68ZM59.3488 17.97C60.0208 17.97 60.5608 17.73 60.9688 17.25C61.3768 16.758 61.5808 16.038 61.5808 15.09C61.5808 14.13 61.3768 13.416 60.9688 12.948C60.5608 12.468 60.0208 12.228 59.3488 12.228C58.6768 12.228 58.1368 12.468 57.7288 12.948C57.3208 13.416 57.1168 14.13 57.1168 15.09C57.1168 16.038 57.3208 16.758 57.7288 17.25C58.1368 17.73 58.6768 17.97 59.3488 17.97ZM69.2942 19.644C68.6942 19.644 68.2502 19.326 67.9622 18.69L65.1002 12.048C64.9322 11.652 64.9262 11.304 65.0822 11.004C65.2502 10.704 65.5802 10.554 66.0722 10.554C66.3482 10.554 66.5702 10.62 66.7382 10.752C66.9062 10.872 67.0562 11.106 67.1882 11.454L69.3482 16.854L71.5802 11.436C71.7122 11.1 71.8622 10.872 72.0302 10.752C72.2102 10.62 72.4502 10.554 72.7502 10.554C73.1342 10.554 73.4042 10.704 73.5602 11.004C73.7162 11.304 73.7102 11.646 73.5422 12.03L70.6262 18.69C70.3622 19.326 69.9182 19.644 69.2942 19.644ZM79.2606 19.68C78.3486 19.68 77.5566 19.494 76.8846 19.122C76.2126 18.75 75.6906 18.222 75.3186 17.538C74.9466 16.842 74.7606 16.026 74.7606 15.09C74.7606 14.154 74.9466 13.344 75.3186 12.66C75.6906 11.976 76.2126 11.448 76.8846 11.076C77.5566 10.704 78.3486 10.518 79.2606 10.518C80.1726 10.518 80.9646 10.704 81.6366 11.076C82.3086 11.448 82.8306 11.976 83.2026 12.66C83.5746 13.344 83.7606 14.154 83.7606 15.09C83.7606 16.026 83.5746 16.842 83.2026 17.538C82.8306 18.222 82.3086 18.75 81.6366 19.122C80.9646 19.494 80.1726 19.68 79.2606 19.68ZM79.2606 17.97C79.9326 17.97 80.4726 17.73 80.8806 17.25C81.2886 16.758 81.4926 16.038 81.4926 15.09C81.4926 14.13 81.2886 13.416 80.8806 12.948C80.4726 12.468 79.9326 12.228 79.2606 12.228C78.5886 12.228 78.0486 12.468 77.6406 12.948C77.2326 13.416 77.0286 14.13 77.0286 15.09C77.0286 16.038 77.2326 16.758 77.6406 17.25C78.0486 17.73 78.5886 17.97 79.2606 17.97ZM94.0904 19.68C91.9304 19.68 90.8504 18.468 90.8504 16.044V11.688C90.8504 10.932 91.2224 10.554 91.9664 10.554C92.7224 10.554 93.1004 10.932 93.1004 11.688V16.08C93.1004 16.704 93.2264 17.166 93.4784 17.466C93.7304 17.766 94.1324 17.916 94.6844 17.916C95.2844 17.916 95.7764 17.712 96.1604 17.304C96.5444 16.884 96.7364 16.332 96.7364 15.648V11.688C96.7364 10.932 97.1084 10.554 97.8524 10.554C98.6084 10.554 98.9864 10.932 98.9864 11.688V18.492C98.9864 19.26 98.6204 19.644 97.8884 19.644C97.1564 19.644 96.7904 19.26 96.7904 18.492V18.186C96.2024 19.182 95.3024 19.68 94.0904 19.68ZM104.75 19.68C104.234 19.68 103.688 19.626 103.112 19.518C102.536 19.41 102.02 19.224 101.564 18.96C101.312 18.816 101.156 18.642 101.096 18.438C101.036 18.222 101.042 18.024 101.114 17.844C101.198 17.652 101.33 17.514 101.51 17.43C101.702 17.346 101.924 17.364 102.176 17.484C102.656 17.712 103.106 17.874 103.526 17.97C103.946 18.054 104.36 18.096 104.768 18.096C105.344 18.096 105.77 18 106.046 17.808C106.334 17.604 106.478 17.34 106.478 17.016C106.478 16.512 106.106 16.188 105.362 16.044L103.562 15.702C102.038 15.414 101.276 14.622 101.276 13.326C101.276 12.75 101.432 12.252 101.744 11.832C102.068 11.412 102.512 11.088 103.076 10.86C103.64 10.632 104.288 10.518 105.02 10.518C106.076 10.518 107.018 10.752 107.846 11.22C108.074 11.34 108.206 11.508 108.242 11.724C108.29 11.928 108.266 12.126 108.17 12.318C108.086 12.498 107.948 12.63 107.756 12.714C107.564 12.786 107.342 12.762 107.09 12.642C106.718 12.45 106.358 12.312 106.01 12.228C105.674 12.144 105.35 12.102 105.038 12.102C104.45 12.102 104.012 12.204 103.724 12.408C103.448 12.612 103.31 12.882 103.31 13.218C103.31 13.746 103.652 14.07 104.336 14.19L106.136 14.532C106.916 14.676 107.504 14.94 107.9 15.324C108.308 15.708 108.512 16.224 108.512 16.872C108.512 17.748 108.17 18.438 107.486 18.942C106.802 19.434 105.89 19.68 104.75 19.68ZM113.703 19.68C111.543 19.68 110.463 18.468 110.463 16.044V11.688C110.463 10.932 110.835 10.554 111.579 10.554C112.335 10.554 112.713 10.932 112.713 11.688V16.08C112.713 16.704 112.839 17.166 113.091 17.466C113.343 17.766 113.745 17.916 114.297 17.916C114.897 17.916 115.389 17.712 115.773 17.304C116.157 16.884 116.349 16.332 116.349 15.648V11.688C116.349 10.932 116.721 10.554 117.465 10.554C118.221 10.554 118.599 10.932 118.599 11.688V18.492C118.599 19.26 118.233 19.644 117.501 19.644C116.769 19.644 116.403 19.26 116.403 18.492V18.186C115.815 19.182 114.915 19.68 113.703 19.68ZM124.039 19.68C123.403 19.68 122.833 19.56 122.329 19.32C121.837 19.068 121.447 18.732 121.159 18.312C120.883 17.892 120.745 17.418 120.745 16.89C120.745 16.242 120.913 15.732 121.249 15.36C121.585 14.976 122.131 14.7 122.887 14.532C123.643 14.364 124.657 14.28 125.929 14.28H126.559V13.902C126.559 13.302 126.427 12.87 126.163 12.606C125.899 12.342 125.455 12.21 124.831 12.21C124.483 12.21 124.105 12.252 123.697 12.336C123.301 12.42 122.881 12.564 122.437 12.768C122.149 12.9 121.909 12.918 121.717 12.822C121.525 12.714 121.393 12.552 121.321 12.336C121.261 12.108 121.273 11.88 121.357 11.652C121.453 11.424 121.639 11.256 121.915 11.148C122.467 10.92 122.995 10.758 123.499 10.662C124.015 10.566 124.483 10.518 124.903 10.518C126.187 10.518 127.141 10.818 127.765 11.418C128.389 12.006 128.701 12.924 128.701 14.172V18.492C128.701 19.26 128.353 19.644 127.657 19.644C126.949 19.644 126.595 19.26 126.595 18.492V18.096C126.391 18.588 126.067 18.978 125.623 19.266C125.179 19.542 124.651 19.68 124.039 19.68ZM124.507 18.132C125.095 18.132 125.581 17.928 125.965 17.52C126.361 17.112 126.559 16.596 126.559 15.972V15.576H125.947C124.819 15.576 124.033 15.666 123.589 15.846C123.157 16.014 122.941 16.326 122.941 16.782C122.941 17.178 123.079 17.502 123.355 17.754C123.631 18.006 124.015 18.132 124.507 18.132ZM125.839 9.42C125.719 9.588 125.575 9.684 125.407 9.708C125.239 9.732 125.077 9.702 124.921 9.618C124.765 9.534 124.651 9.414 124.579 9.258C124.519 9.102 124.537 8.928 124.633 8.736L126.001 6.054C126.133 5.778 126.319 5.622 126.559 5.586C126.799 5.538 127.027 5.574 127.243 5.694C127.471 5.814 127.627 5.988 127.711 6.216C127.795 6.432 127.753 6.66 127.585 6.9L125.839 9.42ZM132.337 19.644C131.569 19.644 131.185 19.26 131.185 18.492V11.688C131.185 10.932 131.551 10.554 132.283 10.554C133.015 10.554 133.381 10.932 133.381 11.688V12.246C133.813 11.214 134.737 10.638 136.153 10.518C136.669 10.458 136.957 10.752 137.017 11.4C137.077 12.036 136.765 12.39 136.081 12.462L135.685 12.498C134.209 12.642 133.471 13.398 133.471 14.766V18.492C133.471 19.26 133.093 19.644 132.337 19.644ZM139.55 8.898C139.13 8.898 138.8 8.796 138.56 8.592C138.332 8.376 138.218 8.082 138.218 7.71C138.218 7.326 138.332 7.032 138.56 6.828C138.8 6.624 139.13 6.522 139.55 6.522C140.438 6.522 140.882 6.918 140.882 7.71C140.882 8.502 140.438 8.898 139.55 8.898ZM139.55 19.626C139.19 19.626 138.914 19.518 138.722 19.302C138.53 19.086 138.434 18.786 138.434 18.402V11.796C138.434 10.98 138.806 10.572 139.55 10.572C140.306 10.572 140.684 10.98 140.684 11.796V18.402C140.684 18.786 140.588 19.086 140.396 19.302C140.204 19.518 139.922 19.626 139.55 19.626ZM147.236 19.68C146.324 19.68 145.532 19.494 144.86 19.122C144.188 18.75 143.666 18.222 143.294 17.538C142.922 16.842 142.736 16.026 142.736 15.09C142.736 14.154 142.922 13.344 143.294 12.66C143.666 11.976 144.188 11.448 144.86 11.076C145.532 10.704 146.324 10.518 147.236 10.518C148.148 10.518 148.94 10.704 149.612 11.076C150.284 11.448 150.806 11.976 151.178 12.66C151.55 13.344 151.736 14.154 151.736 15.09C151.736 16.026 151.55 16.842 151.178 17.538C150.806 18.222 150.284 18.75 149.612 19.122C148.94 19.494 148.148 19.68 147.236 19.68ZM147.236 17.97C147.908 17.97 148.448 17.73 148.856 17.25C149.264 16.758 149.468 16.038 149.468 15.09C149.468 14.13 149.264 13.416 148.856 12.948C148.448 12.468 147.908 12.228 147.236 12.228C146.564 12.228 146.024 12.468 145.616 12.948C145.208 13.416 145.004 14.13 145.004 15.09C145.004 16.038 145.208 16.758 145.616 17.25C146.024 17.73 146.564 17.97 147.236 17.97Z" fill="white"/>
</svg>
